# xmcd
#
# Track frame offsets: 
#        150
#        16910
#        29957
#        49698
#        65389
#        85319
#        99434
#        116399
#        134291
#        158150
#
# Disc length: 2324 seconds
#
# Revision: 1
# Processed by: cddbd v1.5.2PL0 Copyright (c) Steve Scherf et al.
# Submitted via: ExactAudioCopyFreeDBPlugin 1.0
#
DISCID=7d09120a
DTITLE=Магелланово Облако - Условный Сигнал
DYEAR=2014
DGENRE=Rock
TTITLE0=Движения
TTITLE1=Вечность
TTITLE2=Ангел
TTITLE3=Падаю
TTITLE4=Время Молчать
TTITLE5=Молчала Словно Пела
TTITLE6=Шелковый Путь
TTITLE7=Замерзший Цветок
TTITLE8=Все Спокойно
TTITLE9=Узнать Друг Друга
EXTD=
EXTT0=
EXTT1=
EXTT2=
EXTT3=
EXTT4=
EXTT5=
EXTT6=
EXTT7=
EXTT8=
EXTT9=
PLAYORDER=
